<svg width="216" height="160" viewBox="0 0 216 160" fill="none" xmlns="http://www.w3.org/2000/svg">
<path d="M64.6318 58L68.1318 54L77.1318 47L93.1318 41L105.132 40L117.921 44.0169L126.71 51.7457L136.126 58.1864L139.628 59.6234C141.468 60.3787 143.186 61.4043 144.724 62.6664L151.821 68.4915L156.215 70.4237L161.237 78.1525L165.632 86.5254L169.132 100.5L156.215 106.5L142.404 111L128.632 102L115.132 94L109.132 90.5L102.854 86.5254L97.6318 83.5L94.0652 81.3728L91.6318 80L88.6318 78.5L85.6318 77L82.1318 76L78.6318 74.5L74.6318 73.5L67.1318 72.5H60.1318H58.1318H56.1318L58.1318 68L60.6318 63.5L64.6318 58Z" fill="#FCEBC5"/>
<path d="M65.6283 98L69.5929 94L79.7876 87L97.9115 81L111.504 80L125.991 84.0169L135.947 91.7457L146.613 98.1864L151.08 99.8046C152.834 100.44 154.491 101.318 156.002 102.413L164.391 108.491L169.369 110.424L175.058 118.153L180.035 126.525L175.058 130.5L166.5 138L153.724 151L138.124 142L122.832 134L116.035 130.5L108.924 126.525L103.009 123.5L98.9687 121.373L96.2124 120L92.8142 118.5L89.4159 117L85.4513 116L81.4867 114.5L76.9558 113.5L68.4602 112.5H60.531H58.2655H56L58.2655 108L61.0973 103.5L65.6283 98Z" fill="#FCEBC5"/>
<path d="M183 111.5C183 101.782 178.769 79.6595 175.151 70.6814C171.533 61.7033 166.229 53.5456 159.544 46.6741C152.858 39.8026 144.92 34.3518 136.185 30.6329C127.45 26.9141 118.087 25 108.632 25C99.1767 25 89.8141 26.9141 81.0786 30.6329C72.3432 34.3518 64.406 39.8026 57.7201 46.6741C51.0343 53.5456 45.7308 61.7033 42.1125 70.6814C38.4942 79.6595 36.6318 89.2822 36.6318 99H53.2711C53.2711 91.528 54.703 84.1291 57.4852 77.2259C60.2673 70.3226 64.3451 64.0502 69.4859 58.7666C74.6266 53.4831 80.7295 49.292 87.4462 46.4326C94.1629 43.5732 101.362 42.1014 108.632 42.1014C113.937 46.033 116.884 48.7895 118.977 50.8707C123.828 55.6952 129.145 60.5623 135.302 63.5471C138.115 64.9106 140.864 65.9563 143.507 68.6721C148.648 73.9556 153.1 73.2935 155.882 80.1967C158.664 87.1 164.132 94.528 164.132 102L172.5 119L183 111.5Z" fill="#F5C045"/>
<path d="M67.4785 72C69.2024 71.9999 70.9267 72.1826 72.6123 72.5439C74.1168 72.8663 75.6215 73.1883 77.126 73.5107L77.1924 73.5303C78.9998 74.1875 80.8078 74.8447 82.6152 75.502C84.4663 76.1751 86.2866 76.9328 88.0684 77.7725C89.8832 78.6277 91.6585 79.5682 93.3857 80.5889C95.3491 81.749 97.3124 82.9092 99.2773 84.0703L122.777 98.0703L122.768 98.0645L134.268 104.564L134.29 104.578C137.17 106.411 140.05 108.244 142.93 110.076C144.54 111.1 145.922 112.481 146.945 114.092C148.279 116.162 148.574 118.858 147.72 121.168C147.676 121.287 147.633 121.406 147.59 121.525C147.17 122.685 146.385 123.709 145.374 124.414C145.133 124.582 144.892 124.751 144.651 124.919C142.73 126.267 140.423 127.056 138.078 127.164C136.898 127.22 135.717 127.277 134.537 127.333C132.175 127.446 129.793 127.146 127.533 126.45C124.314 125.46 121.094 124.468 117.874 123.478L117.818 123.457C113.322 121.459 108.826 119.46 104.33 117.462C100.957 116.212 97.5825 114.963 94.209 113.714C92.0472 112.912 89.7421 112.499 87.4365 112.5H83.6572C83.3863 112.499 83.1167 112.61 82.9258 112.803C82.4205 113.267 82.587 114.209 83.2207 114.472C89.7224 117.496 96.2239 120.52 102.726 123.544C110.046 126.568 117.367 129.591 124.688 132.614C125.34 132.884 126.018 133.094 126.709 133.239C128.427 133.601 130.146 133.962 131.864 134.324C133.996 134.773 136.175 135 138.354 135H139.021C141.553 135.002 144.083 134.37 146.315 133.177C147.63 132.476 148.944 131.774 150.258 131.073C153.786 128.579 157.315 126.085 160.852 123.586C165.518 120.419 170.185 117.252 174.852 114.086L174.871 114.073L188.761 105.573L188.786 105.559L200.344 99.3945C202.653 98.1571 205.361 97.6812 207.954 98.0566C208.181 98.0891 208.409 98.1219 208.636 98.1543C210.323 98.3935 211.943 99.0815 213.287 100.129C214.978 101.423 215.89 103.648 215.592 105.757C215.581 105.839 215.57 105.922 215.559 106.004C215.207 108.708 213.756 111.248 211.604 112.923C208.216 115.58 204.828 118.237 201.44 120.894L201.422 120.907C197.219 123.907 193.015 126.907 188.806 129.911L162.806 147.911L162.77 147.935C160.436 149.268 158.103 150.601 155.77 151.935L155.745 151.947C153.412 153.114 151.078 154.281 148.745 155.447L148.688 155.472C146.797 156.139 144.906 156.806 143.016 157.474C141.101 158.15 139.102 158.586 137.08 158.77C135.566 158.907 134.051 159.045 132.537 159.183C130.2 159.395 127.845 159.404 125.507 159.209C124.136 159.095 122.764 158.98 121.393 158.866C118.425 158.619 115.487 158.006 112.668 157.047C105.982 154.772 99.2962 152.498 92.6104 150.224L68.3604 141.974L68.3779 141.979C65.115 140.999 61.7085 140.499 58.3018 140.5H52.9277C49.4129 140.499 45.8985 141.092 42.5791 142.248C42.3082 142.342 42.0375 142.437 41.7666 142.531C38.1446 143.79 34.7562 145.718 31.8242 148.188C30.164 149.587 28.5039 150.985 26.8438 152.383L26.3926 152.763L26.0918 152.255L25.2139 150.774L3.21387 117.274L3.20312 117.257L0.203125 112.257L0 111.919L0.28125 111.644C3.0133 108.962 5.74549 106.281 8.47754 103.6C12.7085 99.4476 16.9399 95.2956 21.1709 91.1436L21.2012 91.1162C22.8792 89.7179 24.5574 88.3192 26.2354 86.9209C27.3191 86.0178 28.4026 85.114 29.4863 84.2109C31.98 82.1326 34.6837 80.3064 37.542 78.7676C38.2895 78.3651 39.0371 77.9627 39.7822 77.5615C40.1356 77.3688 40.4885 77.1751 40.8418 76.9824C43.8224 75.3562 46.9985 74.0884 50.2793 73.2139C52.0492 72.7418 53.8695 72.4591 55.6992 72.3721C58.2986 72.2483 60.8986 72.1248 63.498 72.001L63.5215 72H67.4785ZM194.577 86C195.628 86 196.645 86.3764 197.443 87.0605L198.856 88.2715C199.596 88.9055 200.021 89.8307 200.021 90.8047C200.021 92.0325 199.348 93.162 198.267 93.7441L160.759 113.94L160.444 114.109L160.183 113.867L153.683 107.867L153.177 107.4L153.777 107.063L188.611 87.5566C190.434 86.536 192.488 86 194.577 86ZM170.819 83C172.363 83.0001 173.827 83.6861 174.815 84.8721L175.302 85.4561C175.766 86.0137 176.021 86.7165 176.021 87.4424C176.021 88.8935 175.23 90.229 173.957 90.9258L149.262 104.438L148.989 104.588L148.734 104.409L138.041 96.9238L138.802 96.5508L162.494 84.9365C163.73 84.3306 165.034 83.8738 166.378 83.5752L167.532 83.3184C168.485 83.1066 169.459 83 170.436 83H170.819Z" fill="#4689C8"/>
<path fill-rule="evenodd" clip-rule="evenodd" d="M179.459 47.5176C180.893 46.6893 182.729 47.1815 183.557 48.6162C184.385 50.051 183.893 51.8855 182.459 52.7139L174.564 57.2705C173.774 55.4204 172.913 53.6067 171.981 51.834L179.459 47.5176ZM33.1324 46.8838C33.9608 45.4492 35.7953 44.958 37.23 45.7861L45.854 50.7646C44.8947 52.5204 44.0038 54.3176 43.1851 56.1523L34.23 50.9824C32.7954 50.1539 32.3041 48.3185 33.1324 46.8838ZM45.7407 25.9131C46.8056 24.6441 48.6981 24.4785 49.9673 25.543L59.149 33.2471C58.6669 33.7158 58.1901 34.1909 57.7202 34.6738C56.7915 35.6284 55.8898 36.6084 55.0152 37.6113L46.1109 30.1396C44.842 29.0747 44.6762 27.1822 45.7407 25.9131ZM165.398 27.0752C166.667 26.0102 168.56 26.1763 169.625 27.4453C170.689 28.7145 170.524 30.6069 169.255 31.6719L162.217 37.5771C161.352 36.5864 160.461 35.6173 159.543 34.6738C159.063 34.1797 158.574 33.6942 158.081 33.2148L165.398 27.0752ZM66.7886 9.11133C68.0578 8.04678 69.9502 8.21256 71.0152 9.48145L79.3394 19.4014C77.4716 20.2563 75.6424 21.1909 73.857 22.2031L66.4185 13.3379C65.354 12.0688 65.5198 10.1762 66.7886 9.11133ZM143.639 10.7676C144.704 9.49846 146.597 9.33275 147.866 10.3975C149.135 11.4625 149.301 13.3548 148.236 14.624L142.362 21.624C140.553 20.6381 138.701 19.7296 136.811 18.9033L143.639 10.7676ZM108.409 0C110.066 0 111.409 1.34315 111.409 3V13.0557C110.484 13.019 109.558 13 108.631 13C107.556 13 106.481 13.0258 105.409 13.0752V3C105.409 1.34329 106.752 0.000231811 108.409 0Z" fill="#F5C045"/>
</svg>
