<svg width="697" height="94" viewBox="0 0 697 94" fill="none" xmlns="http://www.w3.org/2000/svg">
<path d="M31.1713 73.8066H6.42131V3.98846H31.3759C38.3986 3.98846 44.444 5.38618 49.5122 8.18164C54.5804 10.9544 58.4781 14.943 61.2054 20.1475C63.9554 25.3521 65.3304 31.5794 65.3304 38.8294C65.3304 46.1021 63.9554 52.3521 61.2054 57.5794C58.4781 62.8066 54.5577 66.818 49.444 69.6135C44.3531 72.4089 38.2622 73.8066 31.1713 73.8066ZM21.1827 61.1589H30.5577C34.9213 61.1589 38.5918 60.3862 41.569 58.8407C44.569 57.2725 46.819 54.8521 48.319 51.5794C49.8418 48.2839 50.6031 44.0339 50.6031 38.8294C50.6031 33.6703 49.8418 29.4544 48.319 26.1816C46.819 22.9089 44.5804 20.4998 41.6031 18.9544C38.6259 17.4089 34.9554 16.6362 30.5918 16.6362H21.1827V61.1589ZM95.7242 74.7953C92.3832 74.7953 89.406 74.2157 86.7923 73.0566C84.1787 71.8748 82.1105 70.1362 80.5878 67.8407C79.0878 65.5225 78.3378 62.6362 78.3378 59.1816C78.3378 56.2725 78.8719 53.8294 79.9401 51.8521C81.0082 49.8748 82.4628 48.2839 84.3037 47.0794C86.1446 45.8748 88.2355 44.9657 90.5764 44.3521C92.9401 43.7385 95.4173 43.3066 98.0082 43.0566C101.054 42.7385 103.508 42.443 105.372 42.1703C107.236 41.8748 108.588 41.443 109.429 40.8748C110.27 40.3066 110.69 39.4657 110.69 38.3521V38.1475C110.69 35.9885 110.008 34.318 108.645 33.1362C107.304 31.9544 105.395 31.3635 102.917 31.3635C100.304 31.3635 98.2242 31.943 96.6787 33.1021C95.1332 34.2385 94.1105 35.6703 93.6105 37.3975L80.1787 36.3066C80.8605 33.1248 82.2014 30.3748 84.2014 28.0566C86.2014 25.7157 88.781 23.9203 91.9401 22.6703C95.1219 21.3975 98.8037 20.7612 102.986 20.7612C105.895 20.7612 108.679 21.1021 111.338 21.7839C114.02 22.4657 116.395 23.5225 118.463 24.9544C120.554 26.3862 122.201 28.2271 123.406 30.4771C124.611 32.7044 125.213 35.3748 125.213 38.4885V73.8066H111.44V66.5453H111.031C110.19 68.1816 109.065 69.6248 107.656 70.8748C106.247 72.1021 104.554 73.068 102.576 73.7725C100.599 74.4544 98.3151 74.7953 95.7242 74.7953ZM99.8832 64.7725C102.02 64.7725 103.906 64.3521 105.542 63.5112C107.179 62.6475 108.463 61.4885 109.395 60.0339C110.326 58.5794 110.792 56.9316 110.792 55.0907V49.5339C110.338 49.8294 109.713 50.1021 108.917 50.3521C108.145 50.5794 107.27 50.7953 106.292 50.9998C105.315 51.1816 104.338 51.3521 103.361 51.5112C102.383 51.6475 101.497 51.7725 100.701 51.8862C98.9969 52.1362 97.5082 52.5339 96.2355 53.0794C94.9628 53.6248 93.9742 54.3635 93.2696 55.2953C92.5651 56.2044 92.2128 57.3407 92.2128 58.7044C92.2128 60.6816 92.9287 62.193 94.3605 63.2385C95.8151 64.2612 97.656 64.7725 99.8832 64.7725ZM141.28 73.8066V21.443H155.803V73.8066H141.28ZM148.575 14.693C146.416 14.693 144.564 13.9771 143.018 12.5453C141.496 11.0907 140.734 9.35209 140.734 7.32936C140.734 5.32936 141.496 3.61346 143.018 2.18164C144.564 0.727093 146.416 -0.000181198 148.575 -0.000181198C150.734 -0.000181198 152.575 0.727093 154.098 2.18164C155.643 3.61346 156.416 5.32936 156.416 7.32936C156.416 9.35209 155.643 11.0907 154.098 12.5453C152.575 13.9771 150.734 14.693 148.575 14.693ZM186.759 3.98846V73.8066H172.236V3.98846H186.759ZM212.158 93.443C210.317 93.443 208.59 93.2953 206.976 92.9998C205.386 92.7271 204.067 92.3748 203.022 91.943L206.295 81.1021C207.999 81.6248 209.533 81.9089 210.897 81.9544C212.283 81.9998 213.476 81.6816 214.476 80.9998C215.499 80.318 216.329 79.1589 216.965 77.5225L217.817 75.3066L199.033 21.443H214.306L225.147 59.8975H225.692L236.636 21.443H252.011L231.658 79.4657C230.681 82.2839 229.351 84.7385 227.67 86.8294C226.011 88.943 223.908 90.568 221.363 91.7044C218.817 92.8635 215.749 93.443 212.158 93.443Z" fill="white"/>
<path d="M285.318 73.8066H276.455L302.091 3.98846H310.818L336.455 73.8066H327.591L306.727 15.0339H306.182L285.318 73.8066ZM288.591 46.5339H324.318V54.0339H288.591V46.5339ZM383.33 33.1703L376.102 35.2157C375.648 34.0112 374.977 32.8407 374.091 31.7044C373.227 30.5453 372.045 29.5907 370.545 28.8407C369.045 28.0907 367.125 27.7157 364.784 27.7157C361.58 27.7157 358.909 28.4544 356.773 29.9316C354.659 31.3862 353.602 33.2385 353.602 35.4885C353.602 37.4885 354.33 39.068 355.784 40.2271C357.239 41.3862 359.511 42.3521 362.602 43.1248L370.375 45.0339C375.057 46.1703 378.545 47.9089 380.841 50.2498C383.136 52.568 384.284 55.5566 384.284 59.2157C384.284 62.2157 383.42 64.8975 381.693 67.2612C379.989 69.6248 377.602 71.4885 374.534 72.8521C371.466 74.2157 367.898 74.8975 363.83 74.8975C358.489 74.8975 354.068 73.7385 350.568 71.4203C347.068 69.1021 344.852 65.7157 343.92 61.2612L351.557 59.3521C352.284 62.1703 353.659 64.2839 355.682 65.693C357.727 67.1021 360.398 67.8066 363.693 67.8066C367.443 67.8066 370.42 67.0112 372.625 65.4203C374.852 63.8066 375.966 61.8748 375.966 59.6248C375.966 57.8066 375.33 56.2839 374.057 55.0566C372.784 53.8066 370.83 52.8748 368.193 52.2612L359.466 50.2157C354.67 49.0794 351.148 47.318 348.898 44.9316C346.67 42.5225 345.557 39.5112 345.557 35.8975C345.557 32.943 346.386 30.3294 348.045 28.0566C349.727 25.7839 352.011 23.9998 354.898 22.7044C357.807 21.4089 361.102 20.7612 364.784 20.7612C369.966 20.7612 374.034 21.8975 376.989 24.1703C379.966 26.443 382.08 29.443 383.33 33.1703ZM433.486 33.1703L426.259 35.2157C425.804 34.0112 425.134 32.8407 424.247 31.7044C423.384 30.5453 422.202 29.5907 420.702 28.8407C419.202 28.0907 417.281 27.7157 414.94 27.7157C411.736 27.7157 409.065 28.4544 406.929 29.9316C404.815 31.3862 403.759 33.2385 403.759 35.4885C403.759 37.4885 404.486 39.068 405.94 40.2271C407.395 41.3862 409.668 42.3521 412.759 43.1248L420.531 45.0339C425.213 46.1703 428.702 47.9089 430.997 50.2498C433.293 52.568 434.44 55.5566 434.44 59.2157C434.44 62.2157 433.577 64.8975 431.849 67.2612C430.145 69.6248 427.759 71.4885 424.69 72.8521C421.622 74.2157 418.054 74.8975 413.986 74.8975C408.645 74.8975 404.224 73.7385 400.724 71.4203C397.224 69.1021 395.009 65.7157 394.077 61.2612L401.713 59.3521C402.44 62.1703 403.815 64.2839 405.838 65.693C407.884 67.1021 410.554 67.8066 413.849 67.8066C417.599 67.8066 420.577 67.0112 422.781 65.4203C425.009 63.8066 426.122 61.8748 426.122 59.6248C426.122 57.8066 425.486 56.2839 424.213 55.0566C422.94 53.8066 420.986 52.8748 418.349 52.2612L409.622 50.2157C404.827 49.0794 401.304 47.318 399.054 44.9316C396.827 42.5225 395.713 39.5112 395.713 35.8975C395.713 32.943 396.543 30.3294 398.202 28.0566C399.884 25.7839 402.168 23.9998 405.054 22.7044C407.963 21.4089 411.259 20.7612 414.94 20.7612C420.122 20.7612 424.19 21.8975 427.145 24.1703C430.122 26.443 432.236 29.443 433.486 33.1703ZM446.551 73.8066V21.443H454.597V73.8066H446.551ZM450.642 12.7157C449.074 12.7157 447.722 12.1816 446.585 11.1135C445.472 10.0453 444.915 8.76119 444.915 7.26119C444.915 5.76119 445.472 4.47709 446.585 3.40891C447.722 2.34073 449.074 1.80664 450.642 1.80664C452.21 1.80664 453.551 2.34073 454.665 3.40891C455.801 4.47709 456.369 5.76119 456.369 7.26119C456.369 8.76119 455.801 10.0453 454.665 11.1135C453.551 12.1816 452.21 12.7157 450.642 12.7157ZM506.423 33.1703L499.196 35.2157C498.741 34.0112 498.071 32.8407 497.185 31.7044C496.321 30.5453 495.139 29.5907 493.639 28.8407C492.139 28.0907 490.219 27.7157 487.878 27.7157C484.673 27.7157 482.003 28.4544 479.866 29.9316C477.753 31.3862 476.696 33.2385 476.696 35.4885C476.696 37.4885 477.423 39.068 478.878 40.2271C480.332 41.3862 482.605 42.3521 485.696 43.1248L493.469 45.0339C498.151 46.1703 501.639 47.9089 503.935 50.2498C506.23 52.568 507.378 55.5566 507.378 59.2157C507.378 62.2157 506.514 64.8975 504.787 67.2612C503.082 69.6248 500.696 71.4885 497.628 72.8521C494.56 74.2157 490.991 74.8975 486.923 74.8975C481.582 74.8975 477.162 73.7385 473.662 71.4203C470.162 69.1021 467.946 65.7157 467.014 61.2612L474.651 59.3521C475.378 62.1703 476.753 64.2839 478.776 65.693C480.821 67.1021 483.491 67.8066 486.787 67.8066C490.537 67.8066 493.514 67.0112 495.719 65.4203C497.946 63.8066 499.06 61.8748 499.06 59.6248C499.06 57.8066 498.423 56.2839 497.151 55.0566C495.878 53.8066 493.923 52.8748 491.287 52.2612L482.56 50.2157C477.764 49.0794 474.241 47.318 471.991 44.9316C469.764 42.5225 468.651 39.5112 468.651 35.8975C468.651 32.943 469.48 30.3294 471.139 28.0566C472.821 25.7839 475.105 23.9998 477.991 22.7044C480.901 21.4089 484.196 20.7612 487.878 20.7612C493.06 20.7612 497.128 21.8975 500.082 24.1703C503.06 26.443 505.173 29.443 506.423 33.1703ZM542.261 21.443V28.2612H515.125V21.443H542.261ZM523.034 8.89755H531.08V58.8066C531.08 61.0794 531.409 62.7839 532.068 63.9203C532.75 65.0339 533.614 65.7839 534.659 66.1703C535.727 66.5339 536.852 66.7157 538.034 66.7157C538.92 66.7157 539.648 66.6703 540.216 66.5794C540.784 66.4657 541.239 66.3748 541.58 66.3066L543.216 73.5339C542.67 73.7385 541.909 73.943 540.932 74.1475C539.955 74.3748 538.716 74.4885 537.216 74.4885C534.943 74.4885 532.716 73.9998 530.534 73.0225C528.375 72.0453 526.58 70.5566 525.148 68.5566C523.739 66.5566 523.034 64.0339 523.034 60.9885V8.89755Z" fill="white"/>
<path d="M622.065 3.98846H628.44L620.804 50.2157C620.009 54.9657 618.19 59.2157 615.349 62.9657C612.509 66.693 608.918 69.6362 604.577 71.7953C600.259 73.9316 595.474 74.9998 590.224 74.9998C584.997 74.9998 580.577 73.9203 576.963 71.7612C573.349 69.6021 570.736 66.6589 569.122 62.9316C567.509 59.2044 567.099 54.9657 567.895 50.2157L575.531 3.98846H581.906L574.304 49.7725C573.713 53.4771 573.997 56.7839 575.156 59.693C576.315 62.5794 578.247 64.8521 580.952 66.5112C583.679 68.1703 587.065 68.9998 591.111 68.9998C595.179 68.9998 598.861 68.1703 602.156 66.5112C605.474 64.8521 608.202 62.5794 610.338 59.693C612.497 56.7839 613.884 53.4771 614.497 49.7725L622.065 3.98846ZM635.378 73.8066L646.969 3.98846H653.344L647.105 41.5907H647.753L688.048 3.98846H696.435L661.287 36.2725L684.707 73.8066H676.935L656.616 40.7044L645.571 51.1362L641.753 73.8066H635.378Z" fill="white"/>
</svg>
