<svg width="945" height="168" viewBox="0 0 945 168" fill="none" xmlns="http://www.w3.org/2000/svg">
<g filter="url(#filter0_d_37_3621)">
<path d="M68.6318 62L72.1318 58L81.1318 51L97.1318 45L109.132 44L121.921 48.0169L130.71 55.7457L140.126 62.1864L143.628 63.6234C145.468 64.3787 147.186 65.4043 148.724 66.6664L155.821 72.4915L160.215 74.4237L165.237 82.1525L169.632 90.5254L173.132 104.5L160.215 110.5L146.404 115L132.632 106L119.132 98L113.132 94.5L106.854 90.5254L101.632 87.5L98.0652 85.3728L95.6318 84L92.6318 82.5L89.6318 81L86.1318 80L82.6318 78.5L78.6318 77.5L71.1318 76.5H64.1318H62.1318H60.1318L62.1318 72L64.6318 67.5L68.6318 62Z" fill="#FCEBC5"/>
<path d="M69.6283 102L73.5929 98L83.7876 91L101.912 85L115.504 84L129.991 88.0169L139.947 95.7457L150.613 102.186L155.08 103.805C156.834 104.44 158.491 105.318 160.002 106.413L168.391 112.491L173.369 114.424L179.058 122.153L184.035 130.525L179.058 134.5L170.5 142L157.724 155L142.124 146L126.832 138L120.035 134.5L112.924 130.525L107.009 127.5L102.969 125.373L100.212 124L96.8142 122.5L93.4159 121L89.4513 120L85.4867 118.5L80.9558 117.5L72.4602 116.5H64.531H62.2655H60L62.2655 112L65.0973 107.5L69.6283 102Z" fill="#FCEBC5"/>
<path d="M187 115.5C187 105.782 182.769 83.6595 179.151 74.6814C175.533 65.7033 170.229 57.5456 163.544 50.6741C156.858 43.8026 148.92 38.3518 140.185 34.6329C131.45 30.9141 122.087 29 112.632 29C103.177 29 93.8141 30.9141 85.0786 34.6329C76.3432 38.3518 68.406 43.8026 61.7201 50.6741C55.0343 57.5456 49.7308 65.7033 46.1125 74.6814C42.4942 83.6595 40.6318 93.2822 40.6318 103H57.2711C57.2711 95.528 58.703 88.1291 61.4852 81.2259C64.2673 74.3226 68.3451 68.0502 73.4859 62.7666C78.6266 57.4831 84.7295 53.292 91.4462 50.4326C98.1629 47.5732 105.362 46.1014 112.632 46.1014C117.937 50.033 120.884 52.7895 122.977 54.8707C127.828 59.6952 133.145 64.5623 139.302 67.5471C142.115 68.9106 144.864 69.9563 147.507 72.6721C152.648 77.9556 157.1 77.2935 159.882 84.1967C162.664 91.1 168.132 98.528 168.132 106L176.5 123L187 115.5Z" fill="#F5C045"/>
<path d="M71.4785 76C73.2024 75.9999 74.9267 76.1826 76.6123 76.5439C78.1168 76.8663 79.6215 77.1883 81.126 77.5107L81.1924 77.5303C82.9998 78.1875 84.8078 78.8447 86.6152 79.502C88.4663 80.1751 90.2866 80.9328 92.0684 81.7725C93.8832 82.6277 95.6585 83.5682 97.3857 84.5889C99.3491 85.749 101.312 86.9092 103.277 88.0703L126.777 102.07L126.768 102.064L138.268 108.564L138.29 108.578C141.17 110.411 144.05 112.244 146.93 114.076C148.54 115.1 149.922 116.481 150.945 118.092C152.279 120.162 152.574 122.858 151.72 125.168C151.676 125.287 151.633 125.406 151.59 125.525C151.17 126.685 150.385 127.709 149.374 128.414C149.133 128.582 148.892 128.751 148.651 128.919C146.73 130.267 144.423 131.056 142.078 131.164C140.898 131.22 139.717 131.277 138.537 131.333C136.175 131.446 133.793 131.146 131.533 130.45C128.314 129.46 125.094 128.468 121.874 127.478L121.818 127.457C117.322 125.459 112.826 123.46 108.33 121.462C104.957 120.212 101.583 118.963 98.209 117.714C96.0472 116.912 93.7421 116.499 91.4365 116.5H87.6572C87.3863 116.499 87.1167 116.61 86.9258 116.803C86.4205 117.267 86.587 118.209 87.2207 118.472C93.7224 121.496 100.224 124.52 106.726 127.544C114.046 130.568 121.367 133.591 128.688 136.614C129.34 136.884 130.018 137.094 130.709 137.239C132.427 137.601 134.146 137.962 135.864 138.324C137.996 138.773 140.175 139 142.354 139H143.021C145.553 139.002 148.083 138.37 150.315 137.177C151.63 136.476 152.944 135.774 154.258 135.073C157.786 132.579 161.315 130.085 164.852 127.586C169.518 124.419 174.185 121.252 178.852 118.086L178.871 118.073L192.761 109.573L192.786 109.559L204.344 103.395C206.653 102.157 209.361 101.681 211.954 102.057C212.181 102.089 212.409 102.122 212.636 102.154C214.323 102.394 215.943 103.081 217.287 104.129C218.978 105.423 219.89 107.648 219.592 109.757C219.581 109.839 219.57 109.922 219.559 110.004C219.207 112.708 217.756 115.248 215.604 116.923C212.216 119.58 208.828 122.237 205.44 124.894L205.422 124.907C201.219 127.907 197.015 130.907 192.806 133.911L166.806 151.911L166.77 151.935C164.436 153.268 162.103 154.601 159.77 155.935L159.745 155.947C157.412 157.114 155.078 158.281 152.745 159.447L152.688 159.472C150.797 160.139 148.906 160.806 147.016 161.474C145.101 162.15 143.102 162.586 141.08 162.77C139.566 162.907 138.051 163.045 136.537 163.183C134.2 163.395 131.845 163.404 129.507 163.209C128.136 163.095 126.764 162.98 125.393 162.866C122.425 162.619 119.487 162.006 116.668 161.047C109.982 158.772 103.296 156.498 96.6104 154.224L72.3604 145.974L72.3779 145.979C69.115 144.999 65.7085 144.499 62.3018 144.5H56.9277C53.4129 144.499 49.8985 145.092 46.5791 146.248C46.3082 146.342 46.0375 146.437 45.7666 146.531C42.1446 147.79 38.7562 149.718 35.8242 152.188C34.164 153.587 32.5039 154.985 30.8438 156.383L30.3926 156.763L30.0918 156.255L29.2139 154.774L7.21387 121.274L7.20312 121.257L4.20312 116.257L4 115.919L4.28125 115.644C7.0133 112.962 9.74549 110.281 12.4775 107.6C16.7085 103.448 20.9399 99.2956 25.1709 95.1436L25.2012 95.1162C26.8792 93.7179 28.5574 92.3192 30.2354 90.9209C31.3191 90.0178 32.4026 89.114 33.4863 88.2109C35.98 86.1326 38.6837 84.3064 41.542 82.7676C42.2895 82.3651 43.0371 81.9627 43.7822 81.5615C44.1356 81.3688 44.4885 81.1751 44.8418 80.9824C47.8224 79.3562 50.9985 78.0884 54.2793 77.2139C56.0492 76.7418 57.8695 76.4591 59.6992 76.3721C62.2986 76.2483 64.8986 76.1248 67.498 76.001L67.5215 76H71.4785ZM198.577 90C199.628 90 200.645 90.3764 201.443 91.0605L202.856 92.2715C203.596 92.9055 204.021 93.8307 204.021 94.8047C204.021 96.0325 203.348 97.162 202.267 97.7441L164.759 117.94L164.444 118.109L164.183 117.867L157.683 111.867L157.177 111.4L157.777 111.063L192.611 91.5566C194.434 90.536 196.488 90 198.577 90ZM174.819 87C176.363 87.0001 177.827 87.6861 178.815 88.8721L179.302 89.4561C179.766 90.0137 180.021 90.7165 180.021 91.4424C180.021 92.8935 179.23 94.229 177.957 94.9258L153.262 108.438L152.989 108.588L152.734 108.409L142.041 100.924L142.802 100.551L166.494 88.9365C167.73 88.3306 169.034 87.8738 170.378 87.5752L171.532 87.3184C172.485 87.1066 173.459 87 174.436 87H174.819Z" fill="#4689C8"/>
<path fill-rule="evenodd" clip-rule="evenodd" d="M183.459 51.5176C184.893 50.6893 186.729 51.1815 187.557 52.6162C188.385 54.051 187.893 55.8855 186.459 56.7139L178.564 61.2705C177.774 59.4204 176.913 57.6067 175.981 55.834L183.459 51.5176ZM37.1324 50.8838C37.9608 49.4492 39.7953 48.958 41.23 49.7861L49.854 54.7646C48.8947 56.5204 48.0038 58.3176 47.1851 60.1523L38.23 54.9824C36.7954 54.1539 36.3041 52.3185 37.1324 50.8838ZM49.7407 29.9131C50.8056 28.6441 52.6981 28.4785 53.9673 29.543L63.149 37.2471C62.6669 37.7158 62.1901 38.1909 61.7202 38.6738C60.7915 39.6284 59.8898 40.6084 59.0152 41.6113L50.1109 34.1396C48.842 33.0747 48.6762 31.1822 49.7407 29.9131ZM169.398 31.0752C170.667 30.0102 172.56 30.1763 173.625 31.4453C174.689 32.7145 174.524 34.6069 173.255 35.6719L166.217 41.5771C165.352 40.5864 164.461 39.6173 163.543 38.6738C163.063 38.1797 162.574 37.6942 162.081 37.2148L169.398 31.0752ZM70.7886 13.1113C72.0578 12.0468 73.9502 12.2126 75.0152 13.4814L83.3394 23.4014C81.4716 24.2563 79.6424 25.1909 77.857 26.2031L70.4185 17.3379C69.354 16.0688 69.5198 14.1762 70.7886 13.1113ZM147.639 14.7676C148.704 13.4985 150.597 13.3328 151.866 14.3975C153.135 15.4625 153.301 17.3548 152.236 18.624L146.362 25.624C144.553 24.6381 142.701 23.7296 140.811 22.9033L147.639 14.7676ZM112.409 4C114.066 4 115.409 5.34315 115.409 7V17.0557C114.484 17.019 113.558 17 112.631 17C111.556 17 110.481 17.0258 109.409 17.0752V7C109.409 5.34329 110.752 4.00023 112.409 4Z" fill="#F5C045"/>
<path d="M274.819 118.675H250.069V48.8566H275.024C282.046 48.8566 288.092 50.2543 293.16 53.0498C298.228 55.8225 302.126 59.8112 304.853 65.0157C307.603 70.2203 308.978 76.4475 308.978 83.6975C308.978 90.9703 307.603 97.2203 304.853 102.448C302.126 107.675 298.205 111.686 293.092 114.482C288.001 117.277 281.91 118.675 274.819 118.675ZM264.83 106.027H274.205C278.569 106.027 282.239 105.254 285.217 103.709C288.217 102.141 290.467 99.7203 291.967 96.4475C293.489 93.1521 294.251 88.9021 294.251 83.6975C294.251 78.5384 293.489 74.3225 291.967 71.0498C290.467 67.7771 288.228 65.368 285.251 63.8225C282.274 62.2771 278.603 61.5044 274.239 61.5044H264.83V106.027ZM339.372 119.663C336.031 119.663 333.054 119.084 330.44 117.925C327.826 116.743 325.758 115.004 324.235 112.709C322.735 110.391 321.985 107.504 321.985 104.05C321.985 101.141 322.52 98.6975 323.588 96.7203C324.656 94.743 326.11 93.1521 327.951 91.9475C329.792 90.743 331.883 89.8339 334.224 89.2203C336.588 88.6066 339.065 88.1748 341.656 87.9248C344.701 87.6066 347.156 87.3112 349.02 87.0384C350.883 86.743 352.235 86.3112 353.076 85.743C353.917 85.1748 354.338 84.3339 354.338 83.2203V83.0157C354.338 80.8566 353.656 79.1862 352.292 78.0043C350.951 76.8225 349.042 76.2316 346.565 76.2316C343.951 76.2316 341.872 76.8112 340.326 77.9703C338.781 79.1066 337.758 80.5384 337.258 82.2657L323.826 81.1748C324.508 77.993 325.849 75.243 327.849 72.9248C329.849 70.5839 332.429 68.7884 335.588 67.5384C338.77 66.2657 342.451 65.6294 346.633 65.6294C349.542 65.6294 352.326 65.9703 354.985 66.6521C357.667 67.3339 360.042 68.3907 362.11 69.8225C364.201 71.2543 365.849 73.0953 367.054 75.3453C368.258 77.5725 368.86 80.243 368.86 83.3566V118.675H355.088V111.413H354.679C353.838 113.05 352.713 114.493 351.304 115.743C349.895 116.97 348.201 117.936 346.224 118.641C344.247 119.323 341.963 119.663 339.372 119.663ZM343.531 109.641C345.667 109.641 347.554 109.22 349.19 108.379C350.826 107.516 352.11 106.357 353.042 104.902C353.974 103.448 354.44 101.8 354.44 99.9589V94.4021C353.985 94.6975 353.36 94.9703 352.565 95.2203C351.792 95.4475 350.917 95.6634 349.94 95.868C348.963 96.0498 347.985 96.2203 347.008 96.3793C346.031 96.5157 345.145 96.6407 344.349 96.7543C342.645 97.0043 341.156 97.4021 339.883 97.9475C338.61 98.493 337.622 99.2316 336.917 100.163C336.213 101.073 335.86 102.209 335.86 103.573C335.86 105.55 336.576 107.061 338.008 108.107C339.463 109.129 341.304 109.641 343.531 109.641ZM384.928 118.675V66.3112H399.45V118.675H384.928ZM392.223 59.5612C390.064 59.5612 388.212 58.8453 386.666 57.4134C385.143 55.9589 384.382 54.2203 384.382 52.1975C384.382 50.1975 385.143 48.4816 386.666 47.0498C388.212 45.5953 390.064 44.868 392.223 44.868C394.382 44.868 396.223 45.5953 397.746 47.0498C399.291 48.4816 400.064 50.1975 400.064 52.1975C400.064 54.2203 399.291 55.9589 397.746 57.4134C396.223 58.8453 394.382 59.5612 392.223 59.5612ZM430.407 48.8566V118.675H415.884V48.8566H430.407ZM455.806 138.311C453.965 138.311 452.238 138.163 450.624 137.868C449.033 137.595 447.715 137.243 446.67 136.811L449.942 125.97C451.647 126.493 453.181 126.777 454.545 126.823C455.931 126.868 457.124 126.55 458.124 125.868C459.147 125.186 459.976 124.027 460.613 122.391L461.465 120.175L442.681 66.3112H457.954L468.795 104.766H469.34L480.283 66.3112H495.658L475.306 124.334C474.329 127.152 472.999 129.607 471.317 131.698C469.658 133.811 467.556 135.436 465.01 136.573C462.465 137.732 459.397 138.311 455.806 138.311Z" fill="white"/>
<path d="M528.966 118.675H520.102L545.739 48.8566H554.466L580.102 118.675H571.239L550.375 59.9021H549.83L528.966 118.675ZM532.239 91.4021H567.966V98.9021H532.239V91.4021ZM626.977 78.0384L619.75 80.0839C619.295 78.8793 618.625 77.7089 617.739 76.5725C616.875 75.4134 615.693 74.4589 614.193 73.7089C612.693 72.9589 610.773 72.5839 608.432 72.5839C605.227 72.5839 602.557 73.3225 600.42 74.7998C598.307 76.2543 597.25 78.1066 597.25 80.3566C597.25 82.3566 597.977 83.9362 599.432 85.0953C600.886 86.2543 603.159 87.2203 606.25 87.993L614.023 89.9021C618.705 91.0384 622.193 92.7771 624.489 95.118C626.784 97.4362 627.932 100.425 627.932 104.084C627.932 107.084 627.068 109.766 625.341 112.129C623.636 114.493 621.25 116.357 618.182 117.72C615.114 119.084 611.545 119.766 607.477 119.766C602.136 119.766 597.716 118.607 594.216 116.288C590.716 113.97 588.5 110.584 587.568 106.129L595.205 104.22C595.932 107.038 597.307 109.152 599.33 110.561C601.375 111.97 604.045 112.675 607.341 112.675C611.091 112.675 614.068 111.879 616.273 110.288C618.5 108.675 619.614 106.743 619.614 104.493C619.614 102.675 618.977 101.152 617.705 99.9248C616.432 98.6748 614.477 97.743 611.841 97.1293L603.114 95.0839C598.318 93.9475 594.795 92.1862 592.545 89.7998C590.318 87.3907 589.205 84.3793 589.205 80.7657C589.205 77.8112 590.034 75.1975 591.693 72.9248C593.375 70.6521 595.659 68.868 598.545 67.5725C601.455 66.2771 604.75 65.6294 608.432 65.6294C613.614 65.6294 617.682 66.7657 620.636 69.0384C623.614 71.3112 625.727 74.3112 626.977 78.0384ZM677.134 78.0384L669.906 80.0839C669.452 78.8793 668.781 77.7089 667.895 76.5725C667.031 75.4134 665.849 74.4589 664.349 73.7089C662.849 72.9589 660.929 72.5839 658.588 72.5839C655.384 72.5839 652.713 73.3225 650.577 74.7998C648.463 76.2543 647.406 78.1066 647.406 80.3566C647.406 82.3566 648.134 83.9362 649.588 85.0953C651.043 86.2543 653.315 87.2203 656.406 87.993L664.179 89.9021C668.861 91.0384 672.349 92.7771 674.645 95.118C676.94 97.4362 678.088 100.425 678.088 104.084C678.088 107.084 677.224 109.766 675.497 112.129C673.793 114.493 671.406 116.357 668.338 117.72C665.27 119.084 661.702 119.766 657.634 119.766C652.293 119.766 647.872 118.607 644.372 116.288C640.872 113.97 638.656 110.584 637.724 106.129L645.361 104.22C646.088 107.038 647.463 109.152 649.486 110.561C651.531 111.97 654.202 112.675 657.497 112.675C661.247 112.675 664.224 111.879 666.429 110.288C668.656 108.675 669.77 106.743 669.77 104.493C669.77 102.675 669.134 101.152 667.861 99.9248C666.588 98.6748 664.634 97.743 661.997 97.1293L653.27 95.0839C648.474 93.9475 644.952 92.1862 642.702 89.7998C640.474 87.3907 639.361 84.3793 639.361 80.7657C639.361 77.8112 640.19 75.1975 641.849 72.9248C643.531 70.6521 645.815 68.868 648.702 67.5725C651.611 66.2771 654.906 65.6294 658.588 65.6294C663.77 65.6294 667.838 66.7657 670.793 69.0384C673.77 71.3112 675.884 74.3112 677.134 78.0384ZM690.199 118.675V66.3112H698.244V118.675H690.199ZM694.29 57.5839C692.722 57.5839 691.369 57.0498 690.233 55.9816C689.119 54.9134 688.562 53.6294 688.562 52.1294C688.562 50.6294 689.119 49.3453 690.233 48.2771C691.369 47.2089 692.722 46.6748 694.29 46.6748C695.858 46.6748 697.199 47.2089 698.312 48.2771C699.449 49.3453 700.017 50.6294 700.017 52.1294C700.017 53.6294 699.449 54.9134 698.312 55.9816C697.199 57.0498 695.858 57.5839 694.29 57.5839ZM750.071 78.0384L742.844 80.0839C742.389 78.8793 741.719 77.7089 740.832 76.5725C739.969 75.4134 738.787 74.4589 737.287 73.7089C735.787 72.9589 733.866 72.5839 731.526 72.5839C728.321 72.5839 725.651 73.3225 723.514 74.7998C721.401 76.2543 720.344 78.1066 720.344 80.3566C720.344 82.3566 721.071 83.9362 722.526 85.0953C723.98 86.2543 726.253 87.2203 729.344 87.993L737.116 89.9021C741.798 91.0384 745.287 92.7771 747.582 95.118C749.878 97.4362 751.026 100.425 751.026 104.084C751.026 107.084 750.162 109.766 748.435 112.129C746.73 114.493 744.344 116.357 741.276 117.72C738.207 119.084 734.639 119.766 730.571 119.766C725.23 119.766 720.81 118.607 717.31 116.288C713.81 113.97 711.594 110.584 710.662 106.129L718.298 104.22C719.026 107.038 720.401 109.152 722.423 110.561C724.469 111.97 727.139 112.675 730.435 112.675C734.185 112.675 737.162 111.879 739.366 110.288C741.594 108.675 742.707 106.743 742.707 104.493C742.707 102.675 742.071 101.152 740.798 99.9248C739.526 98.6748 737.571 97.743 734.935 97.1293L726.207 95.0839C721.412 93.9475 717.889 92.1862 715.639 89.7998C713.412 87.3907 712.298 84.3793 712.298 80.7657C712.298 77.8112 713.128 75.1975 714.787 72.9248C716.469 70.6521 718.753 68.868 721.639 67.5725C724.548 66.2771 727.844 65.6294 731.526 65.6294C736.707 65.6294 740.776 66.7657 743.73 69.0384C746.707 71.3112 748.821 74.3112 750.071 78.0384ZM785.909 66.3112V73.1293H758.773V66.3112H785.909ZM766.682 53.7657H774.727V103.675C774.727 105.948 775.057 107.652 775.716 108.788C776.398 109.902 777.261 110.652 778.307 111.038C779.375 111.402 780.5 111.584 781.682 111.584C782.568 111.584 783.295 111.538 783.864 111.448C784.432 111.334 784.886 111.243 785.227 111.175L786.864 118.402C786.318 118.607 785.557 118.811 784.58 119.016C783.602 119.243 782.364 119.357 780.864 119.357C778.591 119.357 776.364 118.868 774.182 117.891C772.023 116.913 770.227 115.425 768.795 113.425C767.386 111.425 766.682 108.902 766.682 105.857V53.7657Z" fill="white"/>
<path d="M865.713 48.8566H872.088L864.451 95.0839C863.656 99.8339 861.838 104.084 858.997 107.834C856.156 111.561 852.565 114.504 848.224 116.663C843.906 118.8 839.122 119.868 833.872 119.868C828.645 119.868 824.224 118.788 820.611 116.629C816.997 114.47 814.383 111.527 812.77 107.8C811.156 104.073 810.747 99.8339 811.542 95.0839L819.179 48.8566H825.554L817.951 94.6407C817.361 98.3453 817.645 101.652 818.804 104.561C819.963 107.448 821.895 109.72 824.599 111.379C827.326 113.038 830.713 113.868 834.758 113.868C838.826 113.868 842.508 113.038 845.804 111.379C849.122 109.72 851.849 107.448 853.986 104.561C856.145 101.652 857.531 98.3453 858.145 94.6407L865.713 48.8566ZM879.025 118.675L890.616 48.8566H896.991L890.753 86.4589H891.4L931.696 48.8566H940.082L904.934 81.1407L928.355 118.675H920.582L900.264 85.5725L889.218 96.0043L885.4 118.675H879.025Z" fill="white"/>
</g>
<defs>
<filter id="filter0_d_37_3621" x="0" y="0" width="944.082" height="167.349" filterUnits="userSpaceOnUse" color-interpolation-filters="sRGB">
<feFlood flood-opacity="0" result="BackgroundImageFix"/>
<feColorMatrix in="SourceAlpha" type="matrix" values="0 0 0 0 0 0 0 0 0 0 0 0 0 0 0 0 0 0 127 0" result="hardAlpha"/>
<feOffset/>
<feGaussianBlur stdDeviation="2"/>
<feComposite in2="hardAlpha" operator="out"/>
<feColorMatrix type="matrix" values="0 0 0 0 0 0 0 0 0 0 0 0 0 0 0 0 0 0 0.25 0"/>
<feBlend mode="normal" in2="BackgroundImageFix" result="effect1_dropShadow_37_3621"/>
<feBlend mode="normal" in="SourceGraphic" in2="effect1_dropShadow_37_3621" result="shape"/>
</filter>
</defs>
</svg>
