<svg width="937" height="160" viewBox="0 0 937 160" fill="none" xmlns="http://www.w3.org/2000/svg">
<path d="M64.6318 58L68.1318 54L77.1318 47L93.1318 41L105.132 40L117.921 44.0169L126.71 51.7457L136.126 58.1864L139.628 59.6234C141.468 60.3787 143.186 61.4043 144.724 62.6664L151.821 68.4915L156.215 70.4237L161.237 78.1525L165.632 86.5254L169.132 100.5L156.215 106.5L142.404 111L128.632 102L115.132 94L109.132 90.5L102.854 86.5254L97.6318 83.5L94.0652 81.3728L91.6318 80L88.6318 78.5L85.6318 77L82.1318 76L78.6318 74.5L74.6318 73.5L67.1318 72.5H60.1318H58.1318H56.1318L58.1318 68L60.6318 63.5L64.6318 58Z" fill="#FCEBC5"/>
<path d="M65.6283 98L69.5929 94L79.7876 87L97.9115 81L111.504 80L125.991 84.0169L135.947 91.7457L146.613 98.1864L151.08 99.8046C152.834 100.44 154.491 101.318 156.002 102.413L164.391 108.491L169.369 110.424L175.058 118.153L180.035 126.525L175.058 130.5L166.5 138L153.724 151L138.124 142L122.832 134L116.035 130.5L108.924 126.525L103.009 123.5L98.9687 121.373L96.2124 120L92.8142 118.5L89.4159 117L85.4513 116L81.4867 114.5L76.9558 113.5L68.4602 112.5H60.531H58.2655H56L58.2655 108L61.0973 103.5L65.6283 98Z" fill="#FCEBC5"/>
<path d="M183 111.5C183 101.782 178.769 79.6595 175.151 70.6814C171.533 61.7033 166.229 53.5456 159.544 46.6741C152.858 39.8026 144.92 34.3518 136.185 30.6329C127.45 26.9141 118.087 25 108.632 25C99.1767 25 89.8141 26.9141 81.0786 30.6329C72.3432 34.3518 64.406 39.8026 57.7201 46.6741C51.0343 53.5456 45.7308 61.7033 42.1125 70.6814C38.4942 79.6595 36.6318 89.2822 36.6318 99H53.2711C53.2711 91.528 54.703 84.1291 57.4852 77.2259C60.2673 70.3226 64.3451 64.0502 69.4859 58.7666C74.6266 53.4831 80.7295 49.292 87.4462 46.4326C94.1629 43.5732 101.362 42.1014 108.632 42.1014C113.937 46.033 116.884 48.7895 118.977 50.8707C123.828 55.6952 129.145 60.5623 135.302 63.5471C138.115 64.9106 140.864 65.9563 143.507 68.6721C148.648 73.9556 153.1 73.2935 155.882 80.1967C158.664 87.1 164.132 94.528 164.132 102L172.5 119L183 111.5Z" fill="#F5C045"/>
<path d="M67.4785 72C69.2024 71.9999 70.9267 72.1826 72.6123 72.5439C74.1168 72.8663 75.6215 73.1883 77.126 73.5107L77.1924 73.5303C78.9998 74.1875 80.8078 74.8447 82.6152 75.502C84.4663 76.1751 86.2866 76.9328 88.0684 77.7725C89.8832 78.6277 91.6585 79.5682 93.3857 80.5889C95.3491 81.749 97.3124 82.9092 99.2773 84.0703L122.777 98.0703L122.768 98.0645L134.268 104.564L134.29 104.578C137.17 106.411 140.05 108.244 142.93 110.076C144.54 111.1 145.922 112.481 146.945 114.092C148.279 116.162 148.574 118.858 147.72 121.168C147.676 121.287 147.633 121.406 147.59 121.525C147.17 122.685 146.385 123.709 145.374 124.414C145.133 124.582 144.892 124.751 144.651 124.919C142.73 126.267 140.423 127.056 138.078 127.164C136.898 127.22 135.717 127.277 134.537 127.333C132.175 127.446 129.793 127.146 127.533 126.45C124.314 125.46 121.094 124.468 117.874 123.478L117.818 123.457C113.322 121.459 108.826 119.46 104.33 117.462C100.957 116.212 97.5825 114.963 94.209 113.714C92.0472 112.912 89.7421 112.499 87.4365 112.5H83.6572C83.3863 112.499 83.1167 112.61 82.9258 112.803C82.4205 113.267 82.587 114.209 83.2207 114.472C89.7224 117.496 96.2239 120.52 102.726 123.544C110.046 126.568 117.367 129.591 124.688 132.614C125.34 132.884 126.018 133.094 126.709 133.239C128.427 133.601 130.146 133.962 131.864 134.324C133.996 134.773 136.175 135 138.354 135H139.021C141.553 135.002 144.083 134.37 146.315 133.177C147.63 132.476 148.944 131.774 150.258 131.073C153.786 128.579 157.315 126.085 160.852 123.586C165.518 120.419 170.185 117.252 174.852 114.086L174.871 114.073L188.761 105.573L188.786 105.559L200.344 99.3945C202.653 98.1571 205.361 97.6812 207.954 98.0566C208.181 98.0891 208.409 98.1219 208.636 98.1543C210.323 98.3935 211.943 99.0815 213.287 100.129C214.978 101.423 215.89 103.648 215.592 105.757C215.581 105.839 215.57 105.922 215.559 106.004C215.207 108.708 213.756 111.248 211.604 112.923C208.216 115.58 204.828 118.237 201.44 120.894L201.422 120.907C197.219 123.907 193.015 126.907 188.806 129.911L162.806 147.911L162.77 147.935C160.436 149.268 158.103 150.601 155.77 151.935L155.745 151.947C153.412 153.114 151.078 154.281 148.745 155.447L148.688 155.472C146.797 156.139 144.906 156.806 143.016 157.474C141.101 158.15 139.102 158.586 137.08 158.77C135.566 158.907 134.051 159.045 132.537 159.183C130.2 159.395 127.845 159.404 125.507 159.209C124.136 159.095 122.764 158.98 121.393 158.866C118.425 158.619 115.487 158.006 112.668 157.047C105.982 154.772 99.2962 152.498 92.6104 150.224L68.3604 141.974L68.3779 141.979C65.115 140.999 61.7085 140.499 58.3018 140.5H52.9277C49.4129 140.499 45.8985 141.092 42.5791 142.248C42.3082 142.342 42.0375 142.437 41.7666 142.531C38.1446 143.79 34.7562 145.718 31.8242 148.188C30.164 149.587 28.5039 150.985 26.8438 152.383L26.3926 152.763L26.0918 152.255L25.2139 150.774L3.21387 117.274L3.20312 117.257L0.203125 112.257L0 111.919L0.28125 111.644C3.0133 108.962 5.74549 106.281 8.47754 103.6C12.7085 99.4476 16.9399 95.2956 21.1709 91.1436L21.2012 91.1162C22.8792 89.7179 24.5574 88.3192 26.2354 86.9209C27.3191 86.0178 28.4026 85.114 29.4863 84.2109C31.98 82.1326 34.6837 80.3064 37.542 78.7676C38.2895 78.3651 39.0371 77.9627 39.7822 77.5615C40.1356 77.3688 40.4885 77.1751 40.8418 76.9824C43.8224 75.3562 46.9985 74.0884 50.2793 73.2139C52.0492 72.7418 53.8695 72.4591 55.6992 72.3721C58.2986 72.2483 60.8986 72.1248 63.498 72.001L63.5215 72H67.4785ZM194.577 86C195.628 86 196.645 86.3764 197.443 87.0605L198.856 88.2715C199.596 88.9055 200.021 89.8307 200.021 90.8047C200.021 92.0325 199.348 93.162 198.267 93.7441L160.759 113.94L160.444 114.109L160.183 113.867L153.683 107.867L153.177 107.4L153.777 107.063L188.611 87.5566C190.434 86.536 192.488 86 194.577 86ZM170.819 83C172.363 83.0001 173.827 83.6861 174.815 84.8721L175.302 85.4561C175.766 86.0137 176.021 86.7165 176.021 87.4424C176.021 88.8935 175.23 90.229 173.957 90.9258L149.262 104.438L148.989 104.588L148.734 104.409L138.041 96.9238L138.802 96.5508L162.494 84.9365C163.73 84.3306 165.034 83.8738 166.378 83.5752L167.532 83.3184C168.485 83.1066 169.459 83 170.436 83H170.819Z" fill="#4689C8"/>
<path fill-rule="evenodd" clip-rule="evenodd" d="M179.459 47.5176C180.893 46.6893 182.729 47.1815 183.557 48.6162C184.385 50.051 183.893 51.8855 182.459 52.7139L174.564 57.2705C173.774 55.4204 172.913 53.6067 171.981 51.834L179.459 47.5176ZM33.1324 46.8838C33.9608 45.4492 35.7953 44.958 37.23 45.7861L45.854 50.7646C44.8947 52.5204 44.0038 54.3176 43.1851 56.1523L34.23 50.9824C32.7954 50.1539 32.3041 48.3185 33.1324 46.8838ZM45.7407 25.9131C46.8056 24.6441 48.6981 24.4785 49.9673 25.543L59.149 33.2471C58.6669 33.7158 58.1901 34.1909 57.7202 34.6738C56.7915 35.6284 55.8898 36.6084 55.0152 37.6113L46.1109 30.1396C44.842 29.0747 44.6762 27.1822 45.7407 25.9131ZM165.398 27.0752C166.667 26.0102 168.56 26.1763 169.625 27.4453C170.689 28.7145 170.524 30.6069 169.255 31.6719L162.217 37.5771C161.352 36.5864 160.461 35.6173 159.543 34.6738C159.063 34.1797 158.574 33.6942 158.081 33.2148L165.398 27.0752ZM66.7886 9.11133C68.0578 8.04678 69.9502 8.21256 71.0152 9.48145L79.3394 19.4014C77.4716 20.2563 75.6424 21.1909 73.857 22.2031L66.4185 13.3379C65.354 12.0688 65.5198 10.1762 66.7886 9.11133ZM143.639 10.7676C144.704 9.49846 146.597 9.33275 147.866 10.3975C149.135 11.4625 149.301 13.3548 148.236 14.624L142.362 21.624C140.553 20.6381 138.701 19.7296 136.811 18.9033L143.639 10.7676ZM108.409 0C110.066 0 111.409 1.34315 111.409 3V13.0557C110.484 13.019 109.558 13 108.631 13C107.556 13 106.481 13.0258 105.409 13.0752V3C105.409 1.34329 106.752 0.000231811 108.409 0Z" fill="#F5C045"/>
<path d="M270.819 114.675H246.069V44.8566H271.024C278.046 44.8566 284.092 46.2543 289.16 49.0498C294.228 51.8225 298.126 55.8112 300.853 61.0157C303.603 66.2203 304.978 72.4475 304.978 79.6975C304.978 86.9703 303.603 93.2203 300.853 98.4475C298.126 103.675 294.205 107.686 289.092 110.482C284.001 113.277 277.91 114.675 270.819 114.675ZM260.83 102.027H270.205C274.569 102.027 278.239 101.254 281.217 99.7089C284.217 98.1407 286.467 95.7203 287.967 92.4475C289.489 89.1521 290.251 84.9021 290.251 79.6975C290.251 74.5384 289.489 70.3225 287.967 67.0498C286.467 63.7771 284.228 61.368 281.251 59.8225C278.274 58.2771 274.603 57.5044 270.239 57.5044H260.83V102.027ZM335.372 115.663C332.031 115.663 329.054 115.084 326.44 113.925C323.826 112.743 321.758 111.004 320.235 108.709C318.735 106.391 317.985 103.504 317.985 100.05C317.985 97.1407 318.52 94.6975 319.588 92.7203C320.656 90.743 322.11 89.1521 323.951 87.9475C325.792 86.743 327.883 85.8339 330.224 85.2203C332.588 84.6066 335.065 84.1748 337.656 83.9248C340.701 83.6066 343.156 83.3112 345.02 83.0384C346.883 82.743 348.235 82.3112 349.076 81.743C349.917 81.1748 350.338 80.3339 350.338 79.2203V79.0157C350.338 76.8566 349.656 75.1862 348.292 74.0043C346.951 72.8225 345.042 72.2316 342.565 72.2316C339.951 72.2316 337.872 72.8112 336.326 73.9703C334.781 75.1066 333.758 76.5384 333.258 78.2657L319.826 77.1748C320.508 73.993 321.849 71.243 323.849 68.9248C325.849 66.5839 328.429 64.7884 331.588 63.5384C334.77 62.2657 338.451 61.6294 342.633 61.6294C345.542 61.6294 348.326 61.9703 350.985 62.6521C353.667 63.3339 356.042 64.3907 358.11 65.8225C360.201 67.2543 361.849 69.0953 363.054 71.3453C364.258 73.5725 364.86 76.243 364.86 79.3566V114.675H351.088V107.413H350.679C349.838 109.05 348.713 110.493 347.304 111.743C345.895 112.97 344.201 113.936 342.224 114.641C340.247 115.323 337.963 115.663 335.372 115.663ZM339.531 105.641C341.667 105.641 343.554 105.22 345.19 104.379C346.826 103.516 348.11 102.357 349.042 100.902C349.974 99.4475 350.44 97.7998 350.44 95.9589V90.4021C349.985 90.6975 349.36 90.9703 348.565 91.2203C347.792 91.4475 346.917 91.6634 345.94 91.868C344.963 92.0498 343.985 92.2203 343.008 92.3793C342.031 92.5157 341.145 92.6407 340.349 92.7543C338.645 93.0043 337.156 93.4021 335.883 93.9475C334.61 94.493 333.622 95.2316 332.917 96.1634C332.213 97.0725 331.86 98.2089 331.86 99.5725C331.86 101.55 332.576 103.061 334.008 104.107C335.463 105.129 337.304 105.641 339.531 105.641ZM380.928 114.675V62.3112H395.45V114.675H380.928ZM388.223 55.5612C386.064 55.5612 384.212 54.8453 382.666 53.4134C381.143 51.9589 380.382 50.2203 380.382 48.1975C380.382 46.1975 381.143 44.4816 382.666 43.0498C384.212 41.5953 386.064 40.868 388.223 40.868C390.382 40.868 392.223 41.5953 393.746 43.0498C395.291 44.4816 396.064 46.1975 396.064 48.1975C396.064 50.2203 395.291 51.9589 393.746 53.4134C392.223 54.8453 390.382 55.5612 388.223 55.5612ZM426.407 44.8566V114.675H411.884V44.8566H426.407ZM451.806 134.311C449.965 134.311 448.238 134.163 446.624 133.868C445.033 133.595 443.715 133.243 442.67 132.811L445.942 121.97C447.647 122.493 449.181 122.777 450.545 122.823C451.931 122.868 453.124 122.55 454.124 121.868C455.147 121.186 455.976 120.027 456.613 118.391L457.465 116.175L438.681 62.3112H453.954L464.795 100.766H465.34L476.283 62.3112H491.658L471.306 120.334C470.329 123.152 468.999 125.607 467.317 127.698C465.658 129.811 463.556 131.436 461.01 132.573C458.465 133.732 455.397 134.311 451.806 134.311Z" fill="#2B2B2B"/>
<path d="M524.966 114.675H516.102L541.739 44.8566H550.466L576.102 114.675H567.239L546.375 55.9021H545.83L524.966 114.675ZM528.239 87.4021H563.966V94.9021H528.239V87.4021ZM622.977 74.0384L615.75 76.0839C615.295 74.8793 614.625 73.7089 613.739 72.5725C612.875 71.4134 611.693 70.4589 610.193 69.7089C608.693 68.9589 606.773 68.5839 604.432 68.5839C601.227 68.5839 598.557 69.3225 596.42 70.7998C594.307 72.2543 593.25 74.1066 593.25 76.3566C593.25 78.3566 593.977 79.9362 595.432 81.0953C596.886 82.2543 599.159 83.2203 602.25 83.993L610.023 85.9021C614.705 87.0384 618.193 88.7771 620.489 91.118C622.784 93.4362 623.932 96.4248 623.932 100.084C623.932 103.084 623.068 105.766 621.341 108.129C619.636 110.493 617.25 112.357 614.182 113.72C611.114 115.084 607.545 115.766 603.477 115.766C598.136 115.766 593.716 114.607 590.216 112.288C586.716 109.97 584.5 106.584 583.568 102.129L591.205 100.22C591.932 103.038 593.307 105.152 595.33 106.561C597.375 107.97 600.045 108.675 603.341 108.675C607.091 108.675 610.068 107.879 612.273 106.288C614.5 104.675 615.614 102.743 615.614 100.493C615.614 98.6748 614.977 97.1521 613.705 95.9248C612.432 94.6748 610.477 93.743 607.841 93.1293L599.114 91.0839C594.318 89.9475 590.795 88.1862 588.545 85.7998C586.318 83.3907 585.205 80.3793 585.205 76.7657C585.205 73.8112 586.034 71.1975 587.693 68.9248C589.375 66.6521 591.659 64.868 594.545 63.5725C597.455 62.2771 600.75 61.6294 604.432 61.6294C609.614 61.6294 613.682 62.7657 616.636 65.0384C619.614 67.3112 621.727 70.3112 622.977 74.0384ZM673.134 74.0384L665.906 76.0839C665.452 74.8793 664.781 73.7089 663.895 72.5725C663.031 71.4134 661.849 70.4589 660.349 69.7089C658.849 68.9589 656.929 68.5839 654.588 68.5839C651.384 68.5839 648.713 69.3225 646.577 70.7998C644.463 72.2543 643.406 74.1066 643.406 76.3566C643.406 78.3566 644.134 79.9362 645.588 81.0953C647.043 82.2543 649.315 83.2203 652.406 83.993L660.179 85.9021C664.861 87.0384 668.349 88.7771 670.645 91.118C672.94 93.4362 674.088 96.4248 674.088 100.084C674.088 103.084 673.224 105.766 671.497 108.129C669.793 110.493 667.406 112.357 664.338 113.72C661.27 115.084 657.702 115.766 653.634 115.766C648.293 115.766 643.872 114.607 640.372 112.288C636.872 109.97 634.656 106.584 633.724 102.129L641.361 100.22C642.088 103.038 643.463 105.152 645.486 106.561C647.531 107.97 650.202 108.675 653.497 108.675C657.247 108.675 660.224 107.879 662.429 106.288C664.656 104.675 665.77 102.743 665.77 100.493C665.77 98.6748 665.134 97.1521 663.861 95.9248C662.588 94.6748 660.634 93.743 657.997 93.1293L649.27 91.0839C644.474 89.9475 640.952 88.1862 638.702 85.7998C636.474 83.3907 635.361 80.3793 635.361 76.7657C635.361 73.8112 636.19 71.1975 637.849 68.9248C639.531 66.6521 641.815 64.868 644.702 63.5725C647.611 62.2771 650.906 61.6294 654.588 61.6294C659.77 61.6294 663.838 62.7657 666.793 65.0384C669.77 67.3112 671.884 70.3112 673.134 74.0384ZM686.199 114.675V62.3112H694.244V114.675H686.199ZM690.29 53.5839C688.722 53.5839 687.369 53.0498 686.233 51.9816C685.119 50.9134 684.562 49.6294 684.562 48.1294C684.562 46.6294 685.119 45.3453 686.233 44.2771C687.369 43.2089 688.722 42.6748 690.29 42.6748C691.858 42.6748 693.199 43.2089 694.312 44.2771C695.449 45.3453 696.017 46.6294 696.017 48.1294C696.017 49.6294 695.449 50.9134 694.312 51.9816C693.199 53.0498 691.858 53.5839 690.29 53.5839ZM746.071 74.0384L738.844 76.0839C738.389 74.8793 737.719 73.7089 736.832 72.5725C735.969 71.4134 734.787 70.4589 733.287 69.7089C731.787 68.9589 729.866 68.5839 727.526 68.5839C724.321 68.5839 721.651 69.3225 719.514 70.7998C717.401 72.2543 716.344 74.1066 716.344 76.3566C716.344 78.3566 717.071 79.9362 718.526 81.0953C719.98 82.2543 722.253 83.2203 725.344 83.993L733.116 85.9021C737.798 87.0384 741.287 88.7771 743.582 91.118C745.878 93.4362 747.026 96.4248 747.026 100.084C747.026 103.084 746.162 105.766 744.435 108.129C742.73 110.493 740.344 112.357 737.276 113.72C734.207 115.084 730.639 115.766 726.571 115.766C721.23 115.766 716.81 114.607 713.31 112.288C709.81 109.97 707.594 106.584 706.662 102.129L714.298 100.22C715.026 103.038 716.401 105.152 718.423 106.561C720.469 107.97 723.139 108.675 726.435 108.675C730.185 108.675 733.162 107.879 735.366 106.288C737.594 104.675 738.707 102.743 738.707 100.493C738.707 98.6748 738.071 97.1521 736.798 95.9248C735.526 94.6748 733.571 93.743 730.935 93.1293L722.207 91.0839C717.412 89.9475 713.889 88.1862 711.639 85.7998C709.412 83.3907 708.298 80.3793 708.298 76.7657C708.298 73.8112 709.128 71.1975 710.787 68.9248C712.469 66.6521 714.753 64.868 717.639 63.5725C720.548 62.2771 723.844 61.6294 727.526 61.6294C732.707 61.6294 736.776 62.7657 739.73 65.0384C742.707 67.3112 744.821 70.3112 746.071 74.0384ZM781.909 62.3112V69.1293H754.773V62.3112H781.909ZM762.682 49.7657H770.727V99.6748C770.727 101.948 771.057 103.652 771.716 104.788C772.398 105.902 773.261 106.652 774.307 107.038C775.375 107.402 776.5 107.584 777.682 107.584C778.568 107.584 779.295 107.538 779.864 107.448C780.432 107.334 780.886 107.243 781.227 107.175L782.864 114.402C782.318 114.607 781.557 114.811 780.58 115.016C779.602 115.243 778.364 115.357 776.864 115.357C774.591 115.357 772.364 114.868 770.182 113.891C768.023 112.913 766.227 111.425 764.795 109.425C763.386 107.425 762.682 104.902 762.682 101.857V49.7657Z" fill="#2B2B2B"/>
<path d="M861.713 44.8566H868.088L860.451 91.0839C859.656 95.8339 857.838 100.084 854.997 103.834C852.156 107.561 848.565 110.504 844.224 112.663C839.906 114.8 835.122 115.868 829.872 115.868C824.645 115.868 820.224 114.788 816.611 112.629C812.997 110.47 810.383 107.527 808.77 103.8C807.156 100.073 806.747 95.8339 807.542 91.0839L815.179 44.8566H821.554L813.951 90.6407C813.361 94.3453 813.645 97.6521 814.804 100.561C815.963 103.448 817.895 105.72 820.599 107.379C823.326 109.038 826.713 109.868 830.758 109.868C834.826 109.868 838.508 109.038 841.804 107.379C845.122 105.72 847.849 103.448 849.986 100.561C852.145 97.6521 853.531 94.3453 854.145 90.6407L861.713 44.8566ZM875.025 114.675L886.616 44.8566H892.991L886.753 82.4589H887.4L927.696 44.8566H936.082L900.934 77.1407L924.355 114.675H916.582L896.264 81.5725L885.218 92.0043L881.4 114.675H875.025Z" fill="#2B2B2B"/>
</svg>
